<svg xmlns="http://www.w3.org/2000/svg" width="20" height="16" viewBox="0 0 20 16" fill="none">
  <path fill-rule="evenodd" clip-rule="evenodd" d="M11.8546 2.75C11.5579 3.48296 10.8393 4 10 4C9.16066 4 8.44207 3.48296 8.14538 2.75H1C0.585786 2.75 0.25 2.41421 0.25 2C0.25 1.58579 0.585786 1.25 1 1.25H8.14538C8.44207 0.517042 9.16066 0 10 0C10.8393 0 11.5579 0.517042 11.8546 1.25H19C19.4142 1.25 19.75 1.58579 19.75 2C19.75 2.41421 19.4142 2.75 19 2.75H11.8546ZM0.25 8C0.25 7.58579 0.585786 7.25 1 7.25H11C11.4142 7.25 11.75 7.58579 11.75 8C11.75 8.41421 11.4142 8.75 11 8.75H1C0.585786 8.75 0.25 8.41421 0.25 8ZM15 6C15.8393 6 16.5579 6.51704 16.8546 7.25H19C19.4142 7.25 19.75 7.58579 19.75 8C19.75 8.41421 19.4142 8.75 19 8.75H16.8546C16.5579 9.48296 15.8393 10 15 10C13.8954 10 13 9.10457 13 8C13 6.89543 13.8954 6 15 6ZM10 13.25C9.58579 13.25 9.25 13.5858 9.25 14C9.25 14.4142 9.58579 14.75 10 14.75H18C18.4142 14.75 18.75 14.4142 18.75 14C18.75 13.5858 18.4142 13.25 18 13.25H10ZM0.25 14C0.25 13.5858 0.585786 13.25 1 13.25H4.14538C4.44207 12.517 5.16066 12 6 12C7.10457 12 8 12.8954 8 14C8 15.1046 7.10457 16 6 16C5.16066 16 4.44207 15.483 4.14538 14.75H1C0.585786 14.75 0.25 14.4142 0.25 14Z" fill="#28303F"/>
</svg>